<svg width="400" height="400" viewBox="0 0 400 400" fill="none" xmlns="http://www.w3.org/2000/svg">
<rect width="400" height="400" fill="#191919"/>
<path d="M79 257.462V225.162C79 222.362 78.5 220.129 77.5 218.462C76.5 216.729 74.8 215.862 72.4 215.862C70.8667 215.862 69.3667 216.262 67.9 217.062C66.5 217.795 65.2333 218.895 64.1 220.362C62.9667 221.829 62.0333 223.629 61.3 225.762C60.6333 227.829 60.3 230.162 60.3 232.762V257.462H48.9V232.262C48.9 228.262 48.6333 224.929 48.1 222.262C47.5667 219.529 47 217.329 46.4 215.662C45.6667 213.729 44.8667 212.162 44 210.962L53 207.362C53.6667 208.095 54.3333 208.995 55 210.062C55.5333 210.995 56.0667 212.162 56.6 213.562C57.1333 214.895 57.5667 216.429 57.9 218.162C59.6333 214.162 62.1333 211.295 65.4 209.562C68.6667 207.762 72.1 206.862 75.7 206.862C80.8333 206.862 84.5333 208.429 86.8 211.562C89.1333 214.629 90.3 218.795 90.3 224.062V257.462H79Z" fill="#F3EFF5"/>
<path d="M189.569 257.462V224.862C189.569 222.062 189.135 219.862 188.269 218.262C187.402 216.595 185.902 215.762 183.769 215.762C182.502 215.762 181.202 216.129 179.869 216.862C178.602 217.529 177.435 218.529 176.369 219.862C175.302 221.195 174.435 222.795 173.769 224.662C173.102 226.529 172.769 228.595 172.769 230.862V257.462H161.469V224.862C161.469 222.062 161.035 219.862 160.169 218.262C159.302 216.595 157.802 215.762 155.669 215.762C154.335 215.762 153.002 216.162 151.669 216.962C150.402 217.695 149.235 218.795 148.169 220.262C147.169 221.729 146.335 223.529 145.669 225.662C145.069 227.729 144.769 230.062 144.769 232.662V257.462H133.369V232.262C133.369 228.262 133.102 224.929 132.569 222.262C132.035 219.529 131.469 217.329 130.869 215.662C130.135 213.729 129.335 212.162 128.469 210.962L137.469 207.362C138.135 208.095 138.802 208.995 139.469 210.062C140.002 210.995 140.535 212.162 141.069 213.562C141.602 214.895 142.035 216.429 142.369 218.162C144.035 214.162 146.369 211.295 149.369 209.562C152.435 207.762 155.669 206.862 159.069 206.862C162.469 206.862 165.102 207.729 166.969 209.462C168.902 211.195 170.335 213.429 171.269 216.162C173.069 212.829 175.369 210.462 178.169 209.062C181.035 207.595 184.035 206.862 187.169 206.862C189.769 206.862 191.935 207.295 193.669 208.162C195.469 208.962 196.869 210.129 197.869 211.662C198.935 213.129 199.702 214.929 200.169 217.062C200.635 219.129 200.869 221.462 200.869 224.062V257.462H189.569Z" fill="#F3EFF5"/>
<path d="M213.328 186.962L224.728 184.962V215.462C225.928 212.729 227.595 210.629 229.728 209.162C231.928 207.629 234.728 206.862 238.128 206.862C241.261 206.862 243.961 207.462 246.228 208.662C248.561 209.795 250.495 211.462 252.028 213.662C253.561 215.795 254.695 218.395 255.428 221.462C256.161 224.529 256.528 227.929 256.528 231.662C256.528 235.462 255.928 238.995 254.728 242.262C253.595 245.462 251.961 248.229 249.828 250.562C247.761 252.895 245.261 254.729 242.328 256.062C239.395 257.395 236.161 258.062 232.628 258.062C230.628 258.062 228.495 257.895 226.228 257.562C223.961 257.295 221.861 256.995 219.928 256.662C217.728 256.262 215.528 255.762 213.328 255.162V186.962ZM236.228 214.862C234.561 214.862 233.028 215.429 231.628 216.562C230.228 217.695 228.995 219.195 227.928 221.062C226.928 222.929 226.128 225.029 225.528 227.362C224.995 229.695 224.728 232.095 224.728 234.562V249.062C225.328 249.195 226.295 249.395 227.628 249.662C228.961 249.929 230.195 250.062 231.328 250.062C233.795 250.062 235.861 249.629 237.528 248.762C239.195 247.895 240.528 246.695 241.528 245.162C242.528 243.629 243.228 241.795 243.628 239.662C244.028 237.529 244.228 235.195 244.228 232.662C244.228 230.329 244.161 228.095 244.028 225.962C243.895 223.829 243.528 221.929 242.928 220.262C242.395 218.595 241.595 217.295 240.528 216.362C239.461 215.362 238.028 214.862 236.228 214.862Z" fill="#F3EFF5"/>
<path d="M296.151 207.662H307.551V233.362C307.551 237.362 307.784 240.729 308.251 243.462C308.784 246.129 309.351 248.295 309.951 249.962C310.684 251.962 311.484 253.529 312.351 254.662L303.451 258.262C302.651 257.529 301.917 256.595 301.251 255.462C300.717 254.529 300.151 253.395 299.551 252.062C299.017 250.662 298.651 249.029 298.451 247.162C296.651 251.095 294.117 253.895 290.851 255.562C287.584 257.229 284.184 258.062 280.651 258.062C275.384 258.062 271.617 256.529 269.351 253.462C267.151 250.395 266.051 246.195 266.051 240.862V207.662H277.451V240.662C277.451 243.462 277.951 245.662 278.951 247.262C279.951 248.862 281.651 249.662 284.051 249.662C285.517 249.662 286.951 249.262 288.351 248.462C289.817 247.595 291.117 246.395 292.251 244.862C293.451 243.329 294.384 241.495 295.051 239.362C295.784 237.162 296.151 234.729 296.151 232.062V207.662Z" fill="#F3EFF5"/>
<path d="M336.134 206.462C338.067 206.462 339.967 206.662 341.834 207.062C343.7 207.462 345.367 207.929 346.834 208.462C348.567 209.062 350.167 209.695 351.634 210.362L348.234 218.162C346.9 217.562 345.567 217.029 344.234 216.562C343.1 216.162 341.834 215.795 340.434 215.462C339.1 215.062 337.767 214.862 336.434 214.862C334.9 214.862 333.567 215.229 332.434 215.962C331.367 216.695 330.834 217.795 330.834 219.262C330.834 223.062 333.6 226.029 339.134 228.162C341.2 228.962 343.067 229.829 344.734 230.762C346.4 231.629 347.8 232.662 348.934 233.862C350.134 235.062 351.034 236.462 351.634 238.062C352.234 239.595 352.534 241.429 352.534 243.562C352.534 245.429 352.134 247.262 351.334 249.062C350.6 250.862 349.467 252.462 347.934 253.862C346.467 255.262 344.634 256.395 342.434 257.262C340.3 258.062 337.867 258.462 335.134 258.462C332.934 258.462 330.767 258.195 328.634 257.662C326.5 257.195 324.567 256.662 322.834 256.062C321.167 255.462 319.834 254.895 318.834 254.362L317.334 253.662L321.034 245.262L322.334 245.962C323.2 246.495 324.3 247.062 325.634 247.662C326.967 248.262 328.4 248.829 329.934 249.362C331.467 249.829 332.867 250.062 334.134 250.062C336.467 250.062 338.2 249.595 339.334 248.662C340.467 247.729 341.034 246.495 341.034 244.962C341.034 243.229 340.4 241.662 339.134 240.262C337.934 238.795 336.1 237.595 333.634 236.662C328.5 234.729 324.8 232.529 322.534 230.062C320.334 227.595 319.234 224.395 319.234 220.462C319.234 218.595 319.667 216.829 320.534 215.162C321.4 213.429 322.567 211.929 324.034 210.662C325.567 209.329 327.367 208.295 329.434 207.562C331.5 206.829 333.734 206.462 336.134 206.462Z" fill="#F3EFF5"/>
<path d="M113 203C113 198.483 113.507 186.184 123.19 179C132.63 171.995 134.618 173.496 136.109 172.996C137.421 172.894 138.931 172.817 140.58 172.847M162.94 183.002C155.655 174.711 147.046 172.962 140.58 172.847M140.58 172.847C147.537 147.881 190.512 123.951 218.834 161.474C227.281 157.472 252.306 152.774 267.031 177.484C270.012 182.487 272 191.493 272 203" stroke="#F3EFF5" stroke-width="11"/>
<path d="M113 208C113 218.5 107 231.966 107 231.966H114C114 231.966 107.737 247 107.737 258" stroke="#F3EFF5" stroke-width="11"/>
</svg>
